<svg width="201" height="41" viewBox="0 0 201 41" fill="none" xmlns="http://www.w3.org/2000/svg">
<path d="M61.4205 22H57.8125L56.6905 18.898H51.2565L50.2665 22H46.7465L51.9825 6.6H56.0525L61.4205 22ZM55.8765 15.928L54.0505 9.724L52.2245 15.928H55.8765ZM61.8595 6.6H65.0935V12.232C65.7242 11.1467 66.6628 10.604 67.9095 10.604C68.5695 10.604 69.1562 10.714 69.6695 10.934C70.1828 11.154 70.6008 11.4473 70.9235 11.814C71.2462 12.166 71.5102 12.5913 71.7155 13.09C71.9355 13.5887 72.0822 14.0947 72.1555 14.608C72.2435 15.1067 72.2875 15.6347 72.2875 16.192C72.2875 16.9693 72.1995 17.71 72.0235 18.414C71.8622 19.118 71.6055 19.7853 71.2535 20.416C70.9162 21.032 70.4248 21.5233 69.7795 21.89C69.1342 22.2567 68.3862 22.44 67.5355 22.44C66.7435 22.44 66.1128 22.2787 65.6435 21.956C65.1888 21.6333 64.7562 21.076 64.3455 20.284V22H61.8595V6.6ZM65.1375 18.7C65.1522 18.7293 65.1815 18.7953 65.2255 18.898C65.2695 18.986 65.2988 19.052 65.3135 19.096C65.3428 19.1253 65.3868 19.1913 65.4455 19.294C65.5042 19.382 65.5555 19.448 65.5995 19.492C65.6582 19.536 65.7315 19.5947 65.8195 19.668C65.9075 19.7413 65.9955 19.7927 66.0835 19.822C66.1862 19.8513 66.3035 19.8807 66.4355 19.91C66.5675 19.9393 66.7142 19.954 66.8755 19.954C67.1982 19.954 67.4842 19.9027 67.7335 19.8C67.9828 19.6827 68.1735 19.514 68.3055 19.294C68.4522 19.0593 68.5695 18.8393 68.6575 18.634C68.7455 18.414 68.8042 18.1427 68.8335 17.82C68.8775 17.4827 68.8995 17.226 68.8995 17.05C68.9142 16.874 68.9215 16.6393 68.9215 16.346C68.9215 15.9793 68.9142 15.6933 68.8995 15.488C68.8995 15.268 68.8628 14.9673 68.7895 14.586C68.7162 14.2047 68.6135 13.904 68.4815 13.684C68.3642 13.464 68.1662 13.266 67.8875 13.09C67.6235 12.914 67.3008 12.826 66.9195 12.826C66.5528 12.826 66.2522 12.8773 66.0175 12.98C65.7828 13.0827 65.6215 13.1927 65.5335 13.31C65.4602 13.4273 65.3795 13.5667 65.2915 13.728C65.2182 13.8893 65.1668 13.992 65.1375 14.036V18.7ZM79.3431 10.56C81.0298 10.56 82.3498 11.1247 83.3031 12.254C84.2565 13.3687 84.7331 14.784 84.7331 16.5C84.7331 18.216 84.2418 19.6313 83.2591 20.746C82.2765 21.8607 80.9711 22.418 79.3431 22.418C77.6711 22.418 76.3658 21.8607 75.4271 20.746C74.5031 19.6167 74.0411 18.1647 74.0411 16.39C74.0411 14.7033 74.5105 13.31 75.4491 12.21C76.3878 11.11 77.6858 10.56 79.3431 10.56ZM77.2971 12.98V19.998H81.4771V12.98H77.2971ZM94.2461 22V20.592C93.9087 21.2373 93.4834 21.7067 92.9701 22C92.4567 22.2933 91.6647 22.44 90.5941 22.44C89.2301 22.44 88.2034 22.0807 87.5141 21.362C86.8394 20.6287 86.5021 19.6827 86.5021 18.524V11H89.7361V20.02H93.5861V11H96.8861V22H94.2461ZM105.681 13.64H103.283V19.36H105.681V22H102.337C100.767 22 99.9827 21.0907 99.9827 19.272V13.64H98.4207V11H99.9827V6.6H103.283V11H105.681V13.64ZM121.561 22C121.781 22.2933 122.28 22.44 123.057 22.44H124.025V24.926C123.615 25.0873 123.079 25.168 122.419 25.168C121.437 25.168 120.63 24.9553 119.999 24.53C119.383 24.1193 118.951 23.4227 118.701 22.44C116.355 22.4107 114.587 21.6627 113.399 20.196C112.211 18.7147 111.617 16.7933 111.617 14.432C111.617 13.288 111.749 12.232 112.013 11.264C112.292 10.296 112.703 9.42333 113.245 8.646C113.803 7.86867 114.558 7.26 115.511 6.82C116.465 6.38 117.572 6.16 118.833 6.16C121.18 6.16 122.947 6.92267 124.135 8.448C125.338 9.97333 125.939 11.968 125.939 14.432C125.939 16.28 125.573 17.8787 124.839 19.228C124.106 20.5627 123.013 21.4867 121.561 22ZM115.335 9.13V19.58H122.243V9.13H115.335ZM127.049 17.666C127.049 16.786 127.291 16.06 127.775 15.488C128.274 14.9013 128.882 14.5053 129.601 14.3C128.926 14.036 128.369 13.596 127.929 12.98C127.489 12.3493 127.269 11.5867 127.269 10.692C127.269 9.88533 127.438 9.18133 127.775 8.58C128.112 7.964 128.567 7.48733 129.139 7.15C129.726 6.81267 130.349 6.56333 131.009 6.402C131.684 6.24067 132.395 6.16 133.143 6.16C134.888 6.16 136.282 6.556 137.323 7.348C138.379 8.14 138.907 9.35733 138.907 11H134.947L134.969 9.13H131.009V12.804H138.819V16.94C138.819 18.788 138.306 20.1667 137.279 21.076C136.252 21.9853 134.8 22.44 132.923 22.44C131.295 22.44 129.909 22.022 128.765 21.186C127.621 20.35 127.049 19.1767 127.049 17.666ZM131.009 19.58H134.969L134.947 15.774H131.009V19.58ZM154.255 22H150.647L149.525 18.898H144.091L143.101 22H139.581L144.817 6.6H148.887L154.255 22ZM148.711 15.928L146.885 9.724L145.059 15.928H148.711Z" fill="#272827"/>
<rect y="35" width="201" height="6" fill="#E99556"/>
</svg>
