<svg width="28" height="40" viewBox="0 0 28 40" fill="none" xmlns="http://www.w3.org/2000/svg">
<path d="M0.00622559 3.25902V0.506526C0.0164645 0.468466 0.0365227 0.433764 0.0643919 0.405895C0.0922612 0.378026 0.126963 0.357968 0.165023 0.347729H11.9626C12.1246 0.389016 12.1828 0.506526 12.1971 0.661089C12.2077 0.775424 12.2056 0.890287 12.2056 1.00462V8.75553C12.2019 9.31291 12.0913 9.4246 11.5418 9.42884C11.3391 9.42884 11.1364 9.42354 10.9336 9.43466C10.7473 9.44524 10.6351 9.5347 10.6271 9.7279C10.6113 10.1418 10.6123 10.5563 10.6271 10.9702C10.634 11.1603 10.7378 11.2587 10.9289 11.2661C11.0083 11.2693 11.0877 11.2709 11.1665 11.2709H16.8271C16.9155 11.2709 17.0034 11.2709 17.0918 11.264C17.2416 11.254 17.3168 11.1735 17.3215 11.0279C17.3363 10.5784 17.3363 10.129 17.3215 9.67974C17.3157 9.51776 17.2252 9.44419 17.0685 9.43572C16.8218 9.42248 16.5746 9.43572 16.3274 9.42725C15.931 9.41454 15.8034 9.29492 15.7981 8.89792C15.7886 8.051 15.7949 7.20408 15.7949 6.35716C15.7949 4.52217 15.7949 2.68841 15.7949 0.855881C15.7949 0.666911 15.7595 0.45677 15.9839 0.347729H27.8371C27.9578 0.404367 27.9805 0.506526 27.9689 0.626683C27.9689 1.4826 27.9689 2.33852 27.9689 3.19444C27.9324 3.41199 27.7651 3.44693 27.592 3.44111C26.9039 3.41729 26.969 3.63484 26.969 4.10435C26.969 6.11826 26.969 8.13234 26.969 10.1466C26.969 10.2435 26.969 10.3398 26.9743 10.4367C26.9849 10.6262 27.0833 10.7246 27.2728 10.7363C27.4046 10.7447 27.5375 10.7363 27.6677 10.7553C27.8366 10.7834 27.9753 10.8453 27.9705 11.0523V18.6746C27.9583 18.9392 27.7667 18.9985 27.5656 18.9922C26.8695 18.9699 26.969 19.1658 26.9685 19.6649C26.9657 22.0532 26.9657 24.4414 26.9685 26.8294C26.9685 26.8823 26.9648 26.9352 26.9685 26.9881C26.9785 27.0892 26.9235 27.2295 27.0288 27.2793C27.1342 27.329 27.2067 27.1956 27.2935 27.1417C27.3676 27.0945 27.4348 27.0358 27.5132 26.9956C27.7365 26.8791 27.8376 26.9061 27.9991 27.1237V29.8761C27.9364 29.9925 27.8469 30.0923 27.7381 30.1673C25.9991 31.4782 24.2613 32.7904 22.5248 34.1039C20.2868 35.7924 18.0504 37.4829 15.8156 39.1753C15.7011 39.2578 15.581 39.3323 15.4562 39.3982H15.1915C14.965 39.2304 14.9396 39.1552 15.0682 38.8869C15.4058 38.1768 15.6236 37.4157 15.7129 36.6346C15.7633 36.2592 15.7912 35.8811 15.7965 35.5023C15.7965 30.2229 15.7965 24.9434 15.7965 19.6639C15.7965 19.0176 15.7828 19.0049 15.1259 19.0049C14.3142 19.0049 13.5035 19.0049 12.6936 19.0049C12.2458 19.0049 12.2082 19.0398 12.2077 19.4813C12.2077 21.4906 12.2077 23.5001 12.2077 25.5097C12.2077 28.8942 12.2077 32.2788 12.2077 35.6633C12.2028 36.7614 12.4447 37.8466 12.9154 38.8387C13.0626 39.1515 13.0488 39.224 12.8127 39.3982H12.5481C12.1431 39.178 11.7969 38.8747 11.4312 38.6C8.79726 36.6164 6.16634 34.6291 3.53841 32.6382C2.45259 31.8198 1.36941 31.0006 0.288885 30.1805C0.17508 30.0937 0.0692153 30.0053 0.00622559 29.874V27.1231C0.172434 26.8997 0.278299 26.8754 0.515436 27.0077C0.621301 27.0681 0.71711 27.1491 0.81927 27.2195C0.942074 27.302 1.01406 27.2777 1.031 27.1242C1.03727 27.0451 1.03956 26.9658 1.03788 26.8865V19.5654C1.03788 19.486 1.03788 19.4066 1.03259 19.3277C1.01988 19.116 0.914548 19.0054 0.697524 19.0038C0.573774 19.0085 0.449848 19.003 0.326997 18.9874C0.181432 18.9615 0.0517478 18.9128 0.0337507 18.736C0.0337507 16.1599 0.0337507 13.5839 0.0337507 11.0078C0.0501598 10.8347 0.165553 10.7723 0.319587 10.7521C0.362992 10.7463 0.407454 10.7453 0.451388 10.7437C1.00506 10.7214 1.03365 10.6907 1.03365 10.1244C1.03365 8.10834 1.03365 6.09179 1.03365 4.07471C1.03365 4.03977 1.03365 4.00431 1.03365 3.96884C1.02465 3.55862 0.922488 3.45804 0.513848 3.44481C0.325938 3.44005 0.116325 3.48292 0.00622559 3.25902Z" fill="#272827"/>
<path d="M0.00634766 10.9841L0.0592802 10.9804C0.0592802 13.5741 0.0592802 16.1678 0.0592802 18.7615H0.00634766V10.9841Z" fill="#2F2F2F"/>
<path d="M27.9515 11.0318C27.9588 11.0288 27.9667 11.0277 27.9745 11.0287C27.9822 11.0296 27.9897 11.0325 27.996 11.0371V18.7096C27.9809 18.7129 27.9654 18.7143 27.95 18.7139L27.9515 11.0318Z" fill="#8F8F8F"/>
<path d="M27.996 3.20624H27.9716L27.9478 3.211C27.9478 2.32597 27.9496 1.44111 27.9531 0.556433C27.9695 0.539494 27.9843 0.540553 27.996 0.562255V3.20624Z" fill="#8F8F8F"/>
<path d="M27.996 0.560668L27.9754 0.550082L27.9531 0.554846C27.9563 0.462744 27.8531 0.430454 27.8372 0.348938C28.05 0.299711 27.9913 0.453744 27.996 0.560668Z" fill="#F0F0F0"/>
<path d="M0.165122 0.34889L0.00632461 0.507688C-0.0194359 0.375357 0.0334967 0.322424 0.165122 0.34889Z" fill="#D8D8D8"/>
</svg>
