<svg width="22" height="30" viewBox="0 0 22 30" fill="none" xmlns="http://www.w3.org/2000/svg">
<path d="M3.19363 3.48V0.151999H0.473625V3.48H3.19363ZM0.473625 6.456V23H3.19363V6.456H0.473625ZM21.6794 21.592V6.456H19.1194V8.824H19.0874C18.5967 7.90667 17.914 7.224 17.0394 6.776C16.1647 6.30667 15.2047 6.072 14.1594 6.072C12.73 6.072 11.5247 6.34933 10.5434 6.904C9.56204 7.43733 8.77271 8.13067 8.17538 8.984C7.57804 9.816 7.15138 10.7547 6.89538 11.8C6.63938 12.824 6.51138 13.8267 6.51138 14.808C6.51138 15.9387 6.66071 17.016 6.95938 18.04C7.27938 19.0427 7.74871 19.928 8.36738 20.696C8.98604 21.4427 9.75404 22.04 10.6714 22.488C11.5887 22.936 12.666 23.16 13.9034 23.16C14.97 23.16 15.9727 22.9253 16.9114 22.456C17.8714 21.9653 18.586 21.208 19.0554 20.184H19.1194V21.272C19.1194 22.1893 19.0234 23.032 18.8314 23.8C18.6607 24.568 18.3727 25.2187 17.9674 25.752C17.562 26.3067 17.05 26.7333 16.4314 27.032C15.8127 27.352 15.0554 27.512 14.1594 27.512C13.7114 27.512 13.242 27.4587 12.7514 27.352C12.2607 27.2667 11.802 27.1173 11.3754 26.904C10.97 26.6907 10.618 26.4133 10.3194 26.072C10.042 25.7307 9.89271 25.3147 9.87138 24.824H7.15138C7.19404 25.72 7.42871 26.4773 7.85538 27.096C8.28204 27.7147 8.81538 28.216 9.45538 28.6C10.1167 28.984 10.842 29.2613 11.6314 29.432C12.442 29.6027 13.2314 29.688 13.9994 29.688C16.6447 29.688 18.586 29.016 19.8234 27.672C21.0607 26.328 21.6794 24.3013 21.6794 21.592ZM14.0634 20.792C13.1674 20.792 12.4207 20.6107 11.8234 20.248C11.226 19.864 10.746 19.3733 10.3834 18.776C10.0207 18.1573 9.76471 17.4747 9.61538 16.728C9.46604 15.9813 9.39138 15.2347 9.39138 14.488C9.39138 13.6987 9.47671 12.9413 9.64738 12.216C9.83938 11.4907 10.1274 10.8507 10.5114 10.296C10.9167 9.74133 11.4287 9.304 12.0474 8.984C12.666 8.64267 13.4127 8.472 14.2874 8.472C15.1407 8.472 15.866 8.64267 16.4634 8.984C17.0607 9.32533 17.5407 9.784 17.9034 10.36C18.2874 10.9147 18.5647 11.544 18.7354 12.248C18.906 12.952 18.9914 13.6667 18.9914 14.392C18.9914 15.16 18.8954 15.928 18.7034 16.696C18.5327 17.464 18.2554 18.1573 17.8714 18.776C17.4874 19.3733 16.9754 19.864 16.3354 20.248C15.7167 20.6107 14.9594 20.792 14.0634 20.792Z" fill="#272827"/>
</svg>
