<svg width="21" height="23" viewBox="0 0 21 23" fill="none" xmlns="http://www.w3.org/2000/svg">
<path d="M2.9905 3.48V0.151999H0.2705V3.48H2.9905ZM0.2705 6.456V23H2.9905V6.456H0.2705ZM7.20425 6.456V23H9.92425V13.656C9.92425 12.9093 10.0203 12.2267 10.2123 11.608C10.4256 10.968 10.7349 10.4133 11.1403 9.944C11.5456 9.47467 12.0469 9.112 12.6443 8.856C13.2629 8.6 13.9883 8.472 14.8203 8.472C15.8656 8.472 16.6869 8.77067 17.2843 9.368C17.8816 9.96533 18.1803 10.776 18.1803 11.8V23H20.9003V12.12C20.9003 11.224 20.8043 10.4133 20.6123 9.688C20.4416 8.94133 20.1323 8.30133 19.6843 7.768C19.2363 7.23467 18.6496 6.81867 17.9243 6.52C17.1989 6.22133 16.2923 6.072 15.2043 6.072C12.7509 6.072 10.9589 7.07467 9.82825 9.08H9.76425V6.456H7.20425Z" fill="#272827"/>
</svg>
