<svg width="22" height="32" viewBox="0 0 22 32" fill="none" xmlns="http://www.w3.org/2000/svg">
<g clip-path="url(#clip0)">
<path d="M3.32317 18.4996C3.16879 18.0629 3.01813 17.6355 2.86709 17.2082C2.56167 16.3449 2.73863 15.5634 3.31021 14.8851C3.63191 14.5031 3.99692 14.1493 4.38415 13.8361C5.07938 13.2737 5.86197 13.2005 6.6801 13.5457C6.94664 13.6582 7.20504 13.7895 7.49342 13.9246C7.46788 13.8447 7.44715 13.7775 7.42531 13.7108C6.61236 11.2154 5.78978 8.72346 4.99201 6.22325C4.70104 5.31081 4.45634 4.37924 4.35749 3.42215C4.24532 2.33712 4.40488 1.32038 5.27003 0.550881C5.75387 0.120547 6.34174 -0.0212713 6.97034 0.0034907C7.31314 0.0169972 7.58708 0.205338 7.83363 0.429697C8.46371 1.00185 8.8961 1.7222 9.29702 2.46318C10.1962 4.12374 10.8792 5.88034 11.513 7.65682C11.9598 8.90993 12.3789 10.1735 12.8105 11.4323C12.8302 11.4897 12.852 11.546 12.8905 11.6514C12.9483 11.4919 12.9923 11.3756 13.033 11.2582C13.7275 9.25435 14.3994 7.2415 15.2564 5.30031C15.7621 4.1545 16.2985 3.0237 17.0363 2.00809C17.2544 1.70757 17.5091 1.43256 17.7645 1.16205C18.7026 0.168571 20.0627 0.631545 20.6628 1.29712C21.1263 1.81112 21.3232 2.42792 21.361 3.10624C21.4069 3.93465 21.2084 4.73078 21.0119 5.52241C20.3477 8.19521 19.4411 10.7907 18.5353 13.3858C18.5071 13.4661 18.4808 13.5472 18.4516 13.6335C18.7415 13.7156 19.0217 13.782 19.2938 13.874C20.6428 14.3287 21.4202 15.2936 21.7337 16.6803C21.9925 17.8239 22.0277 18.9832 21.9844 20.1455C21.934 21.4977 21.7371 22.8307 21.2884 24.11C20.0634 27.6049 17.7978 30.0897 14.3239 31.3612C12.8764 31.8909 11.3653 32.0541 9.83121 31.9862C7.74442 31.8936 5.81829 31.2786 4.12612 30.0327C2.46616 28.8103 1.14975 27.286 0.434898 25.2964C-0.00674525 24.0676 -0.113732 22.8048 0.121343 21.5183C0.385662 20.0712 1.25118 19.161 2.61128 18.7082C2.8445 18.6301 3.08291 18.5694 3.32317 18.4996ZM2.91114 22.6168C3.07069 22.8202 3.22099 23.0085 3.36759 23.1995C3.82885 23.8009 4.25125 24.4353 4.81617 24.9482C5.16341 25.2634 5.53657 25.5346 5.99524 25.6599C6.52499 25.8047 7.02883 25.6539 7.32906 25.2619C7.44049 25.1163 7.51008 24.952 7.4453 24.7737C7.33942 24.483 7.23725 24.1858 7.08954 23.9165C6.49982 22.8404 5.74499 21.8837 4.92945 20.978C4.64477 20.6618 4.31418 20.3845 3.98582 20.1129C3.79887 19.9583 3.57194 19.8832 3.31243 19.9211C2.80082 19.9954 2.43322 20.2944 2.12225 20.6798C1.42221 21.5472 1.2882 22.55 1.54771 23.5968C2.08671 25.7717 3.31465 27.4949 5.07678 28.8201C6.42356 29.8334 7.96505 30.3519 9.63464 30.4878C11.0325 30.6014 12.403 30.4799 13.7327 30.0083C15.8476 29.2583 17.4369 27.8405 18.66 25.9751C19.6858 24.4106 20.2282 22.6708 20.4055 20.8084C20.5184 19.6225 20.5214 18.4388 20.3281 17.2592C20.1797 16.3528 19.7388 15.6673 18.8892 15.2933C18.523 15.1319 18.1573 14.9642 17.7778 14.8419C15.3919 14.0728 12.9416 13.7475 10.442 13.7903C10.2721 13.7933 10.0996 13.8346 9.93486 13.8815C9.5954 13.9779 9.3892 14.2097 9.32959 14.5639C9.21187 15.2655 9.36328 15.8913 9.85898 16.4113C10.3202 16.8953 10.9126 17.1388 11.5356 17.311C12.7206 17.6385 13.9371 17.7245 15.1576 17.7612C15.7988 17.7804 16.4407 17.7725 17.0822 17.7781C17.4613 17.7815 17.6631 17.9225 17.7982 18.2797C17.8267 18.3551 17.8415 18.4354 17.8671 18.5123C17.9118 18.6485 17.8893 18.7562 17.7527 18.8237C17.2781 19.0575 16.819 19.3344 16.3267 19.5186C14.5049 20.2003 13.173 21.4286 12.2797 23.1593C11.7932 24.101 11.5893 25.0938 11.8547 26.1447C11.9887 26.6752 12.1675 27.1937 12.306 27.723C12.3648 27.9489 12.38 28.1875 12.4004 28.4216C12.41 28.5349 12.3393 28.6028 12.2238 28.5571C11.9858 28.4622 11.7299 28.3894 11.5204 28.2483C11.1113 27.9729 10.8859 27.5433 10.706 27.0924C10.3961 26.3154 10.3265 25.4967 10.3073 24.6698C10.3054 24.5948 10.3069 24.5194 10.3069 24.3993C9.8338 24.8049 9.35477 24.6766 8.86685 24.5621C8.88277 24.6428 8.89202 24.7036 8.90683 24.7629C9.26777 26.1904 8.33599 27.0215 7.49861 27.2743C6.92036 27.4488 6.35063 27.3719 5.79719 27.1588C4.8965 26.8121 4.19498 26.1893 3.57379 25.4656C3.10956 24.9249 2.76158 24.3205 2.68532 23.5893C2.64904 23.2486 2.66311 22.917 2.91114 22.6168ZM11.5323 12.5184C11.51 12.4426 11.4986 12.3954 11.4827 12.3492C10.7119 10.0895 9.95634 7.82415 9.16227 5.57269C8.80281 4.5537 8.38374 3.55496 7.95506 2.56298C7.8229 2.25721 7.60374 1.96982 7.36534 1.73608C6.8267 1.2082 6.03485 1.41117 5.79274 2.13002C5.71537 2.35963 5.69464 2.62038 5.70093 2.86575C5.72055 3.65101 5.92749 4.40475 6.13184 5.15549C6.68269 7.18034 7.38422 9.15492 8.09684 11.1254C8.29897 11.6837 8.5048 12.2404 8.72247 12.8343C8.91238 12.5087 9.19966 12.4209 9.50914 12.4047C9.7668 12.3912 10.027 12.404 10.2851 12.4201C10.6901 12.4453 11.0943 12.4832 11.5323 12.5184ZM14.1481 12.7886C15.0362 12.9476 15.8895 13.0992 16.742 13.2542C16.8449 13.2729 16.8931 13.247 16.9301 13.1401C17.113 12.6115 17.3099 12.0877 17.4954 11.5602C18.3057 9.25547 19.1205 6.95223 19.7488 4.58709C19.8842 4.07646 20.0268 3.56547 19.922 3.02258C19.8002 2.39377 19.316 2.01784 18.7648 2.15403C18.3813 2.24895 18.1351 2.53259 17.9155 2.83836C17.3858 3.57747 17.0371 4.4115 16.738 5.26279C16.0087 7.33867 15.302 9.42318 14.5867 11.5043C14.442 11.926 14.2987 12.3481 14.1481 12.7886ZM5.78719 14.8978C5.70649 14.9241 5.53768 14.9504 5.39774 15.0299C4.9635 15.2768 4.63329 15.6343 4.40044 16.0819C4.26754 16.3374 4.25088 16.6075 4.31714 16.8822C4.35786 17.051 4.4034 17.2217 4.47262 17.3797C5.32741 19.331 6.56682 21.0017 8.11054 22.4439C8.41373 22.7271 8.75172 22.9725 9.15634 23.0971C9.45583 23.1893 9.72682 23.1327 9.96596 22.9237C10.3769 22.5647 10.4742 22.1283 10.3169 21.6072C9.81677 19.9519 9.10118 18.3987 8.19865 16.9317C7.88139 16.4162 7.53414 15.9232 7.08843 15.5116C6.74193 15.1927 6.36618 14.9256 5.78719 14.8978ZM11.7355 21.2921C12.36 20.5012 13.0982 19.7981 13.9889 19.1877C12.8194 19.1213 11.7285 18.9528 10.6964 18.5757C11.044 19.4841 11.3868 20.3804 11.7355 21.2921Z" fill="#272827"/>
</g>
<defs>
<clipPath id="clip0">
<rect width="22" height="32" fill="white"/>
</clipPath>
</defs>
</svg>
