<svg width="277" height="186" viewBox="0 0 277 186" fill="none" xmlns="http://www.w3.org/2000/svg">
<rect x="152" width="109" height="186" fill="#B8ABC5"/>
<path d="M91.512 142.68C87.8173 142.68 85.0293 141.535 83.148 139.246C81.2893 136.957 80.36 133.976 80.36 130.304C80.36 128.536 80.564 126.904 80.972 125.408C81.4027 123.912 82.0373 122.563 82.876 121.362C83.7373 120.161 84.9047 119.22 86.378 118.54C87.8513 117.86 89.5627 117.52 91.512 117.52C95.1387 117.52 97.87 118.699 99.706 121.056C101.565 123.413 102.494 126.496 102.494 130.304C102.494 133.999 101.565 136.991 99.706 139.28C97.87 141.547 95.1387 142.68 91.512 142.68ZM86.106 122.11V138.26H96.782V122.11H86.106ZM110.669 122.79V127.652H118.183V132.242H110.669V142H105.229V118.2H120.461V122.79H110.669ZM158.283 142H153.693L148.355 123.13V142H142.915V118.2H151.551L156.073 133.194L160.391 118.2H169.197V142H163.757V123.13L158.283 142ZM190.805 134.656C190.805 137.648 190.114 139.733 188.731 140.912C187.348 142.091 184.878 142.68 181.319 142.68C177.828 142.68 175.38 142.102 173.975 140.946C172.592 139.767 171.901 137.671 171.901 134.656V118.2H177.341V138.09H185.365V118.2H190.805V134.656ZM206.504 125.68V121.94H200.078V124.558C200.078 125.034 200.18 125.442 200.384 125.782C200.588 126.122 200.883 126.394 201.268 126.598C201.676 126.779 202.028 126.915 202.322 127.006C202.617 127.074 202.991 127.153 203.444 127.244C204.872 127.561 206.096 127.901 207.116 128.264C208.136 128.627 209.077 129.103 209.938 129.692C210.822 130.259 211.48 130.984 211.91 131.868C212.364 132.729 212.59 133.749 212.59 134.928C212.59 137.331 211.661 139.223 209.802 140.606C207.966 141.989 205.79 142.68 203.274 142.68C201.914 142.68 200.679 142.544 199.568 142.272C198.48 142.023 197.46 141.603 196.508 141.014C195.579 140.425 194.842 139.586 194.298 138.498C193.777 137.387 193.516 136.061 193.516 134.52H199.296V138.26H206.402L206.436 135.846C206.436 134.282 205.167 133.228 202.628 132.684C200.022 132.231 197.936 131.335 196.372 129.998C194.831 128.661 194.06 126.847 194.06 124.558C194.06 122.405 194.876 120.693 196.508 119.424C198.163 118.155 200.362 117.52 203.104 117.52C203.988 117.52 204.827 117.599 205.62 117.758C206.436 117.894 207.252 118.155 208.068 118.54C208.907 118.925 209.621 119.424 210.21 120.036C210.822 120.625 211.321 121.407 211.706 122.382C212.092 123.357 212.284 124.456 212.284 125.68H206.504ZM220.738 142H215.298V118.2H220.738V142ZM238.833 126.7V122.11H230.231V138.09H238.833V133.84H244.613C244.613 136.719 243.661 138.917 241.757 140.436C239.876 141.932 237.371 142.68 234.243 142.68C230.685 142.68 227.999 141.49 226.185 139.11C224.372 136.707 223.465 133.557 223.465 129.658C223.465 127.437 223.839 125.431 224.587 123.64C225.358 121.849 226.582 120.387 228.259 119.254C229.959 118.098 232.011 117.52 234.413 117.52C237.655 117.52 240.159 118.336 241.927 119.968C243.718 121.6 244.613 123.844 244.613 126.7H238.833Z" fill="#272827"/>
<path d="M85.8 71H80.36V47.2H89.132C91.8293 47.2 93.9827 47.8233 95.592 49.07C97.224 50.3167 98.04 52.3 98.04 55.02C98.04 57.6267 97.224 59.5987 95.592 60.936C93.9827 62.2507 91.886 62.908 89.302 62.908H85.8V71ZM88.52 58.318C91.0133 58.318 92.26 57.2867 92.26 55.224C92.26 52.9347 91.002 51.79 88.486 51.79H85.8V58.318H88.52ZM110.969 71.68C107.274 71.68 104.486 70.5353 102.605 68.246C100.746 65.9567 99.817 62.976 99.817 59.304C99.817 57.536 100.021 55.904 100.429 54.408C100.86 52.912 101.494 51.5633 102.333 50.362C103.194 49.1607 104.362 48.22 105.835 47.54C107.308 46.86 109.02 46.52 110.969 46.52C114.596 46.52 117.327 47.6987 119.163 50.056C121.022 52.4133 121.951 55.496 121.951 59.304C121.951 62.9987 121.022 65.9907 119.163 68.28C117.327 70.5467 114.596 71.68 110.969 71.68ZM105.563 51.11V67.26H116.239V51.11H105.563ZM148.724 71H143.284L138.49 54.408L134.138 71H128.358L123.326 47.2H129.106L131.962 63.928L135.6 47.2H141.38L145.426 63.928L148.384 47.2H154.164L148.724 71ZM160.275 51.79V56.618H168.435V61.208H160.275V66.41H170.815V71H154.835V47.2H170.815V51.79H160.275ZM192.806 71H186.686L182.198 61.99H178.968V71H173.528V47.2H182.504C185.405 47.2 187.729 47.8913 189.474 49.274C191.219 50.634 192.092 52.4473 192.092 54.714C192.092 57.978 190.619 60.1427 187.672 61.208L192.806 71ZM178.968 51.79V58.08H182.3C184.975 58.08 186.312 56.9807 186.312 54.782C186.312 54.102 186.187 53.5467 185.938 53.116C185.711 52.6853 185.371 52.3793 184.918 52.198C184.487 52.0167 184.091 51.9033 183.728 51.858C183.388 51.8127 182.98 51.79 182.504 51.79H178.968ZM199.255 71H193.815V47.2H199.255V71ZM221.703 71H216.705L207.083 54.374V71H201.983V47.2H208.103L216.603 61.718V47.2H221.703V71ZM236.464 62.602V58.522H245.542V71H241.462V68.654C240.76 69.7193 239.898 70.49 238.878 70.966C237.881 71.442 236.623 71.68 235.104 71.68C233.132 71.68 231.432 71.34 230.004 70.66C228.576 69.98 227.466 69.028 226.672 67.804C225.879 66.58 225.301 65.2313 224.938 63.758C224.598 62.2847 224.428 60.6527 224.428 58.862C224.428 57.162 224.621 55.6093 225.006 54.204C225.392 52.776 225.981 51.4727 226.774 50.294C227.59 49.1153 228.712 48.1973 230.14 47.54C231.591 46.86 233.291 46.52 235.24 46.52C238.55 46.52 241.1 47.3133 242.89 48.9C244.681 50.464 245.576 52.7307 245.576 55.7H239.796V50.906H231.024V67.26H240.238V62.602H236.464Z" fill="#272827"/>
<path d="M90.288 84.2C92.6907 84.2 94.5947 84.7213 96 85.764C97.428 86.784 98.142 88.2687 98.142 90.218C98.142 93.0287 96.884 94.6833 94.368 95.182C96 95.3407 97.2353 95.9073 98.074 96.882C98.9127 97.8567 99.332 99.1487 99.332 100.758C99.332 102.707 98.72 104.407 97.496 105.858C96.272 107.286 94.4473 108 92.022 108H80.36V84.2H90.288ZM85.8 93.516H89.2C91.308 93.516 92.362 92.6887 92.362 91.034C92.362 90.5127 92.26 90.082 92.056 89.742C91.852 89.402 91.546 89.1753 91.138 89.062C90.7527 88.9487 90.424 88.8807 90.152 88.858C89.88 88.8127 89.5287 88.79 89.098 88.79H85.8V93.516ZM85.8 103.41H89.914C91.0927 103.41 91.988 103.127 92.6 102.56C93.2347 101.993 93.552 101.279 93.552 100.418C93.552 99.398 93.178 98.65 92.43 98.174C91.7047 97.6753 90.832 97.426 89.812 97.426H85.8V103.41ZM121.974 100.656C121.974 103.648 121.282 105.733 119.9 106.912C118.517 108.091 116.046 108.68 112.488 108.68C108.997 108.68 106.549 108.102 105.144 106.946C103.761 105.767 103.07 103.671 103.07 100.656V84.2H108.51V104.09H116.534V84.2H121.974V100.656ZM139.033 91.68V87.94H132.607V90.558C132.607 91.034 132.709 91.442 132.913 91.782C133.117 92.122 133.412 92.394 133.797 92.598C134.205 92.7793 134.556 92.9153 134.851 93.006C135.146 93.074 135.52 93.1533 135.973 93.244C137.401 93.5613 138.625 93.9013 139.645 94.264C140.665 94.6267 141.606 95.1027 142.467 95.692C143.351 96.2587 144.008 96.984 144.439 97.868C144.892 98.7293 145.119 99.7493 145.119 100.928C145.119 103.331 144.19 105.223 142.331 106.606C140.495 107.989 138.319 108.68 135.803 108.68C134.443 108.68 133.208 108.544 132.097 108.272C131.009 108.023 129.989 107.603 129.037 107.014C128.108 106.425 127.371 105.586 126.827 104.498C126.306 103.387 126.045 102.061 126.045 100.52H131.825V104.26H138.931L138.965 101.846C138.965 100.282 137.696 99.228 135.157 98.684C132.55 98.2307 130.465 97.3353 128.901 95.998C127.36 94.6607 126.589 92.8473 126.589 90.558C126.589 88.4047 127.405 86.6933 129.037 85.424C130.692 84.1547 132.89 83.52 135.633 83.52C136.517 83.52 137.356 83.5993 138.149 83.758C138.965 83.894 139.781 84.1547 140.597 84.54C141.436 84.9253 142.15 85.424 142.739 86.036C143.351 86.6253 143.85 87.4073 144.235 88.382C144.62 89.3567 144.813 90.456 144.813 91.68H139.033ZM154.626 108H149.186V84.2H154.626V108ZM178.434 108H173.436L163.814 91.374V108H158.714V84.2H164.834L173.334 98.718V84.2H178.434V108ZM187.959 88.79V93.618H196.119V98.208H187.959V103.41H198.499V108H182.519V84.2H198.499V88.79H187.959ZM215.561 91.68V87.94H209.135V90.558C209.135 91.034 209.237 91.442 209.441 91.782C209.645 92.122 209.939 92.394 210.325 92.598C210.733 92.7793 211.084 92.9153 211.379 93.006C211.673 93.074 212.047 93.1533 212.501 93.244C213.929 93.5613 215.153 93.9013 216.173 94.264C217.193 94.6267 218.133 95.1027 218.995 95.692C219.879 96.2587 220.536 96.984 220.967 97.868C221.42 98.7293 221.647 99.7493 221.647 100.928C221.647 103.331 220.717 105.223 218.859 106.606C217.023 107.989 214.847 108.68 212.331 108.68C210.971 108.68 209.735 108.544 208.625 108.272C207.537 108.023 206.517 107.603 205.565 107.014C204.635 106.425 203.899 105.586 203.355 104.498C202.833 103.387 202.573 102.061 202.573 100.52H208.353V104.26H215.459L215.493 101.846C215.493 100.282 214.223 99.228 211.685 98.684C209.078 98.2307 206.993 97.3353 205.429 95.998C203.887 94.6607 203.117 92.8473 203.117 90.558C203.117 88.4047 203.933 86.6933 205.565 85.424C207.219 84.1547 209.418 83.52 212.161 83.52C213.045 83.52 213.883 83.5993 214.677 83.758C215.493 83.894 216.309 84.1547 217.125 84.54C217.963 84.9253 218.677 85.424 219.267 86.036C219.879 86.6253 220.377 87.4073 220.763 88.382C221.148 89.3567 221.341 90.456 221.341 91.68H215.561ZM238.702 91.68V87.94H232.276V90.558C232.276 91.034 232.378 91.442 232.582 91.782C232.786 92.122 233.081 92.394 233.466 92.598C233.874 92.7793 234.225 92.9153 234.52 93.006C234.815 93.074 235.189 93.1533 235.642 93.244C237.07 93.5613 238.294 93.9013 239.314 94.264C240.334 94.6267 241.275 95.1027 242.136 95.692C243.02 96.2587 243.677 96.984 244.108 97.868C244.561 98.7293 244.788 99.7493 244.788 100.928C244.788 103.331 243.859 105.223 242 106.606C240.164 107.989 237.988 108.68 235.472 108.68C234.112 108.68 232.877 108.544 231.766 108.272C230.678 108.023 229.658 107.603 228.706 107.014C227.777 106.425 227.04 105.586 226.496 104.498C225.975 103.387 225.714 102.061 225.714 100.52H231.494V104.26H238.6L238.634 101.846C238.634 100.282 237.365 99.228 234.826 98.684C232.219 98.2307 230.134 97.3353 228.57 95.998C227.029 94.6607 226.258 92.8473 226.258 90.558C226.258 88.4047 227.074 86.6933 228.706 85.424C230.361 84.1547 232.559 83.52 235.302 83.52C236.186 83.52 237.025 83.5993 237.818 83.758C238.634 83.894 239.45 84.1547 240.266 84.54C241.105 84.9253 241.819 85.424 242.408 86.036C243.02 86.6253 243.519 87.4073 243.904 88.382C244.289 89.3567 244.482 90.456 244.482 91.68H238.702Z" fill="#272827"/>
<path d="M19.9448 83.5V88.225H13.5398V108H7.93977V88.225H1.53477V83.5H19.9448ZM35.7626 83.5H41.3626V108H35.7626V97.955H27.6426V108H22.0426V83.5H27.6426V93.23H35.7626V83.5ZM49.7568 88.225V93.195H58.1568V97.92H49.7568V103.275H60.6068V108H44.1568V83.5H60.6068V88.225H49.7568Z" fill="#272827"/>
</svg>
