<svg width="277" height="144" viewBox="0 0 277 144" fill="none" xmlns="http://www.w3.org/2000/svg">
<path d="M91.512 116.68C87.8173 116.68 85.0293 115.535 83.148 113.246C81.2893 110.957 80.36 107.976 80.36 104.304C80.36 102.536 80.564 100.904 80.972 99.408C81.4027 97.912 82.0373 96.5633 82.876 95.362C83.7373 94.1607 84.9047 93.22 86.378 92.54C87.8513 91.86 89.5627 91.52 91.512 91.52C95.1387 91.52 97.87 92.6987 99.706 95.056C101.565 97.4133 102.494 100.496 102.494 104.304C102.494 107.999 101.565 110.991 99.706 113.28C97.87 115.547 95.1387 116.68 91.512 116.68ZM86.106 96.11V112.26H96.782V96.11H86.106ZM110.669 96.79V101.652H118.183V106.242H110.669V116H105.229V92.2H120.461V96.79H110.669ZM158.283 116H153.693L148.355 97.13V116H142.915V92.2H151.551L156.073 107.194L160.391 92.2H169.197V116H163.757V97.13L158.283 116ZM190.805 108.656C190.805 111.648 190.114 113.733 188.731 114.912C187.348 116.091 184.878 116.68 181.319 116.68C177.828 116.68 175.38 116.102 173.975 114.946C172.592 113.767 171.901 111.671 171.901 108.656V92.2H177.341V112.09H185.365V92.2H190.805V108.656ZM206.504 99.68V95.94H200.078V98.558C200.078 99.034 200.18 99.442 200.384 99.782C200.588 100.122 200.883 100.394 201.268 100.598C201.676 100.779 202.028 100.915 202.322 101.006C202.617 101.074 202.991 101.153 203.444 101.244C204.872 101.561 206.096 101.901 207.116 102.264C208.136 102.627 209.077 103.103 209.938 103.692C210.822 104.259 211.48 104.984 211.91 105.868C212.364 106.729 212.59 107.749 212.59 108.928C212.59 111.331 211.661 113.223 209.802 114.606C207.966 115.989 205.79 116.68 203.274 116.68C201.914 116.68 200.679 116.544 199.568 116.272C198.48 116.023 197.46 115.603 196.508 115.014C195.579 114.425 194.842 113.586 194.298 112.498C193.777 111.387 193.516 110.061 193.516 108.52H199.296V112.26H206.402L206.436 109.846C206.436 108.282 205.167 107.228 202.628 106.684C200.022 106.231 197.936 105.335 196.372 103.998C194.831 102.661 194.06 100.847 194.06 98.558C194.06 96.4047 194.876 94.6933 196.508 93.424C198.163 92.1547 200.362 91.52 203.104 91.52C203.988 91.52 204.827 91.5993 205.62 91.758C206.436 91.894 207.252 92.1547 208.068 92.54C208.907 92.9253 209.621 93.424 210.21 94.036C210.822 94.6253 211.321 95.4073 211.706 96.382C212.092 97.3567 212.284 98.456 212.284 99.68H206.504ZM220.738 116H215.298V92.2H220.738V116ZM238.833 100.7V96.11H230.231V112.09H238.833V107.84H244.613C244.613 110.719 243.661 112.917 241.757 114.436C239.876 115.932 237.371 116.68 234.243 116.68C230.685 116.68 227.999 115.49 226.185 113.11C224.372 110.707 223.465 107.557 223.465 103.658C223.465 101.437 223.839 99.4307 224.587 97.64C225.358 95.8493 226.582 94.3873 228.259 93.254C229.959 92.098 232.011 91.52 234.413 91.52C237.655 91.52 240.159 92.336 241.927 93.968C243.718 95.6 244.613 97.844 244.613 100.7H238.833Z" fill="white"/>
<path d="M85.8 45H80.36V21.2H89.132C91.8293 21.2 93.9827 21.8233 95.592 23.07C97.224 24.3167 98.04 26.3 98.04 29.02C98.04 31.6267 97.224 33.5987 95.592 34.936C93.9827 36.2507 91.886 36.908 89.302 36.908H85.8V45ZM88.52 32.318C91.0133 32.318 92.26 31.2867 92.26 29.224C92.26 26.9347 91.002 25.79 88.486 25.79H85.8V32.318H88.52ZM110.969 45.68C107.274 45.68 104.486 44.5353 102.605 42.246C100.746 39.9567 99.817 36.976 99.817 33.304C99.817 31.536 100.021 29.904 100.429 28.408C100.86 26.912 101.494 25.5633 102.333 24.362C103.194 23.1607 104.362 22.22 105.835 21.54C107.308 20.86 109.02 20.52 110.969 20.52C114.596 20.52 117.327 21.6987 119.163 24.056C121.022 26.4133 121.951 29.496 121.951 33.304C121.951 36.9987 121.022 39.9907 119.163 42.28C117.327 44.5467 114.596 45.68 110.969 45.68ZM105.563 25.11V41.26H116.239V25.11H105.563ZM148.724 45H143.284L138.49 28.408L134.138 45H128.358L123.326 21.2H129.106L131.962 37.928L135.6 21.2H141.38L145.426 37.928L148.384 21.2H154.164L148.724 45ZM160.275 25.79V30.618H168.435V35.208H160.275V40.41H170.815V45H154.835V21.2H170.815V25.79H160.275ZM192.806 45H186.686L182.198 35.99H178.968V45H173.528V21.2H182.504C185.405 21.2 187.729 21.8913 189.474 23.274C191.219 24.634 192.092 26.4473 192.092 28.714C192.092 31.978 190.619 34.1427 187.672 35.208L192.806 45ZM178.968 25.79V32.08H182.3C184.975 32.08 186.312 30.9807 186.312 28.782C186.312 28.102 186.187 27.5467 185.938 27.116C185.711 26.6853 185.371 26.3793 184.918 26.198C184.487 26.0167 184.091 25.9033 183.728 25.858C183.388 25.8127 182.98 25.79 182.504 25.79H178.968ZM199.255 45H193.815V21.2H199.255V45ZM221.703 45H216.705L207.083 28.374V45H201.983V21.2H208.103L216.603 35.718V21.2H221.703V45ZM236.464 36.602V32.522H245.542V45H241.462V42.654C240.76 43.7193 239.898 44.49 238.878 44.966C237.881 45.442 236.623 45.68 235.104 45.68C233.132 45.68 231.432 45.34 230.004 44.66C228.576 43.98 227.466 43.028 226.672 41.804C225.879 40.58 225.301 39.2313 224.938 37.758C224.598 36.2847 224.428 34.6527 224.428 32.862C224.428 31.162 224.621 29.6093 225.006 28.204C225.392 26.776 225.981 25.4727 226.774 24.294C227.59 23.1153 228.712 22.1973 230.14 21.54C231.591 20.86 233.291 20.52 235.24 20.52C238.55 20.52 241.1 21.3133 242.89 22.9C244.681 24.464 245.576 26.7307 245.576 29.7H239.796V24.906H231.024V41.26H240.238V36.602H236.464Z" fill="white"/>
<path d="M90.288 58.2C92.6907 58.2 94.5947 58.7213 96 59.764C97.428 60.784 98.142 62.2687 98.142 64.218C98.142 67.0287 96.884 68.6833 94.368 69.182C96 69.3407 97.2353 69.9073 98.074 70.882C98.9127 71.8567 99.332 73.1487 99.332 74.758C99.332 76.7073 98.72 78.4073 97.496 79.858C96.272 81.286 94.4473 82 92.022 82H80.36V58.2H90.288ZM85.8 67.516H89.2C91.308 67.516 92.362 66.6887 92.362 65.034C92.362 64.5127 92.26 64.082 92.056 63.742C91.852 63.402 91.546 63.1753 91.138 63.062C90.7527 62.9487 90.424 62.8807 90.152 62.858C89.88 62.8127 89.5287 62.79 89.098 62.79H85.8V67.516ZM85.8 77.41H89.914C91.0927 77.41 91.988 77.1267 92.6 76.56C93.2347 75.9933 93.552 75.2793 93.552 74.418C93.552 73.398 93.178 72.65 92.43 72.174C91.7047 71.6753 90.832 71.426 89.812 71.426H85.8V77.41ZM121.974 74.656C121.974 77.648 121.282 79.7333 119.9 80.912C118.517 82.0907 116.046 82.68 112.488 82.68C108.997 82.68 106.549 82.102 105.144 80.946C103.761 79.7673 103.07 77.6707 103.07 74.656V58.2H108.51V78.09H116.534V58.2H121.974V74.656ZM139.033 65.68V61.94H132.607V64.558C132.607 65.034 132.709 65.442 132.913 65.782C133.117 66.122 133.412 66.394 133.797 66.598C134.205 66.7793 134.556 66.9153 134.851 67.006C135.146 67.074 135.52 67.1533 135.973 67.244C137.401 67.5613 138.625 67.9013 139.645 68.264C140.665 68.6267 141.606 69.1027 142.467 69.692C143.351 70.2587 144.008 70.984 144.439 71.868C144.892 72.7293 145.119 73.7493 145.119 74.928C145.119 77.3307 144.19 79.2233 142.331 80.606C140.495 81.9887 138.319 82.68 135.803 82.68C134.443 82.68 133.208 82.544 132.097 82.272C131.009 82.0227 129.989 81.6033 129.037 81.014C128.108 80.4247 127.371 79.586 126.827 78.498C126.306 77.3873 126.045 76.0613 126.045 74.52H131.825V78.26H138.931L138.965 75.846C138.965 74.282 137.696 73.228 135.157 72.684C132.55 72.2307 130.465 71.3353 128.901 69.998C127.36 68.6607 126.589 66.8473 126.589 64.558C126.589 62.4047 127.405 60.6933 129.037 59.424C130.692 58.1547 132.89 57.52 135.633 57.52C136.517 57.52 137.356 57.5993 138.149 57.758C138.965 57.894 139.781 58.1547 140.597 58.54C141.436 58.9253 142.15 59.424 142.739 60.036C143.351 60.6253 143.85 61.4073 144.235 62.382C144.62 63.3567 144.813 64.456 144.813 65.68H139.033ZM154.626 82H149.186V58.2H154.626V82ZM178.434 82H173.436L163.814 65.374V82H158.714V58.2H164.834L173.334 72.718V58.2H178.434V82ZM187.959 62.79V67.618H196.119V72.208H187.959V77.41H198.499V82H182.519V58.2H198.499V62.79H187.959ZM215.561 65.68V61.94H209.135V64.558C209.135 65.034 209.237 65.442 209.441 65.782C209.645 66.122 209.939 66.394 210.325 66.598C210.733 66.7793 211.084 66.9153 211.379 67.006C211.673 67.074 212.047 67.1533 212.501 67.244C213.929 67.5613 215.153 67.9013 216.173 68.264C217.193 68.6267 218.133 69.1027 218.995 69.692C219.879 70.2587 220.536 70.984 220.967 71.868C221.42 72.7293 221.647 73.7493 221.647 74.928C221.647 77.3307 220.717 79.2233 218.859 80.606C217.023 81.9887 214.847 82.68 212.331 82.68C210.971 82.68 209.735 82.544 208.625 82.272C207.537 82.0227 206.517 81.6033 205.565 81.014C204.635 80.4247 203.899 79.586 203.355 78.498C202.833 77.3873 202.573 76.0613 202.573 74.52H208.353V78.26H215.459L215.493 75.846C215.493 74.282 214.223 73.228 211.685 72.684C209.078 72.2307 206.993 71.3353 205.429 69.998C203.887 68.6607 203.117 66.8473 203.117 64.558C203.117 62.4047 203.933 60.6933 205.565 59.424C207.219 58.1547 209.418 57.52 212.161 57.52C213.045 57.52 213.883 57.5993 214.677 57.758C215.493 57.894 216.309 58.1547 217.125 58.54C217.963 58.9253 218.677 59.424 219.267 60.036C219.879 60.6253 220.377 61.4073 220.763 62.382C221.148 63.3567 221.341 64.456 221.341 65.68H215.561ZM238.702 65.68V61.94H232.276V64.558C232.276 65.034 232.378 65.442 232.582 65.782C232.786 66.122 233.081 66.394 233.466 66.598C233.874 66.7793 234.225 66.9153 234.52 67.006C234.815 67.074 235.189 67.1533 235.642 67.244C237.07 67.5613 238.294 67.9013 239.314 68.264C240.334 68.6267 241.275 69.1027 242.136 69.692C243.02 70.2587 243.677 70.984 244.108 71.868C244.561 72.7293 244.788 73.7493 244.788 74.928C244.788 77.3307 243.859 79.2233 242 80.606C240.164 81.9887 237.988 82.68 235.472 82.68C234.112 82.68 232.877 82.544 231.766 82.272C230.678 82.0227 229.658 81.6033 228.706 81.014C227.777 80.4247 227.04 79.586 226.496 78.498C225.975 77.3873 225.714 76.0613 225.714 74.52H231.494V78.26H238.6L238.634 75.846C238.634 74.282 237.365 73.228 234.826 72.684C232.219 72.2307 230.134 71.3353 228.57 69.998C227.029 68.6607 226.258 66.8473 226.258 64.558C226.258 62.4047 227.074 60.6933 228.706 59.424C230.361 58.1547 232.559 57.52 235.302 57.52C236.186 57.52 237.025 57.5993 237.818 57.758C238.634 57.894 239.45 58.1547 240.266 58.54C241.105 58.9253 241.819 59.424 242.408 60.036C243.02 60.6253 243.519 61.4073 243.904 62.382C244.289 63.3567 244.482 64.456 244.482 65.68H238.702Z" fill="white"/>
<path d="M19.9448 57.5V62.225H13.5398V82H7.93977V62.225H1.53477V57.5H19.9448ZM35.7626 57.5H41.3626V82H35.7626V71.955H27.6426V82H22.0426V57.5H27.6426V67.23H35.7626V57.5ZM49.7568 62.225V67.195H58.1568V71.92H49.7568V77.275H60.6068V82H44.1568V57.5H60.6068V62.225H49.7568Z" fill="white"/>
</svg>
